<svg width="138" height="40" viewBox="0 0 138 40" fill="none" xmlns="http://www.w3.org/2000/svg">
<path d="M26.3151 26.0805C26.3151 24.802 25.8475 23.633 25.0914 22.7028L14.3216 9.89843C13.3913 8.73439 11.9338 8.03299 10.3022 8.03299C7.45179 8.03299 5.06403 10.3611 5.06403 13.2711C5.06403 14.5496 5.53163 15.7186 6.28775 16.6488L17.0576 29.5129C17.9878 30.6769 19.4453 31.3734 21.077 31.3734C23.987 31.3137 26.3151 28.9856 26.3151 26.0755V26.0805Z" fill="#FD5234"/>
<path d="M24.2756 30.2143C25.2655 29.4582 25.962 28.3489 26.1958 27.1848L29.0511 14.4352C29.3994 12.9776 29.1108 11.351 28.1209 10.0675C26.3749 7.73948 23.1166 7.33157 20.7835 9.07762C19.7936 9.83374 19.0971 10.9431 18.8633 12.1071L16.0677 24.5633L16.008 24.9115C15.6598 26.369 15.9483 27.9957 16.9382 29.2791C18.6843 31.5475 22.0023 32.0151 24.2756 30.2093V30.2143Z" fill="#FD5234"/>
<path d="M39.995 26.0805C39.995 24.802 39.5274 23.633 38.7713 22.7028L27.9468 9.89843C27.0116 8.73439 25.559 8.03299 23.9274 8.03299C21.072 8.03299 18.6892 10.3611 18.6892 13.2711C18.6892 14.5496 19.1568 15.7186 19.9129 16.6488L30.6827 29.5129C31.613 30.6769 33.0705 31.3734 34.7021 31.3734C37.6719 31.3137 40 28.9856 40 26.0755L39.995 26.0805Z" fill="url(#paint0_radial_13_493)"/>
<path d="M5.23815 20.8423C8.13332 20.8423 10.4763 23.1903 10.4763 26.0805C10.4763 28.9707 8.12834 31.3187 5.23815 31.3187C2.34797 31.3187 0 28.9757 0 26.0805C0 23.1853 2.34797 20.8423 5.23815 20.8423Z" fill="url(#paint1_radial_13_493)"/>
<path d="M49.0739 26V14.3636H53.6648C54.5473 14.3636 55.2992 14.5322 55.9205 14.8693C56.5417 15.2027 57.0152 15.6667 57.3409 16.2614C57.6705 16.8523 57.8352 17.5341 57.8352 18.3068C57.8352 19.0795 57.6686 19.7614 57.3352 20.3523C57.0019 20.9432 56.5189 21.4034 55.8864 21.733C55.2576 22.0625 54.4962 22.2273 53.6023 22.2273H50.6761V20.2557H53.2045C53.678 20.2557 54.0682 20.1742 54.375 20.0114C54.6856 19.8447 54.9167 19.6155 55.0682 19.3239C55.2235 19.0284 55.3011 18.6894 55.3011 18.3068C55.3011 17.9205 55.2235 17.5833 55.0682 17.2955C54.9167 17.0038 54.6856 16.7784 54.375 16.6193C54.0644 16.4564 53.6705 16.375 53.1932 16.375H51.5341V26H49.0739ZM63.2244 26.1705C62.3267 26.1705 61.554 25.9886 60.9062 25.625C60.2623 25.2576 59.7661 24.7386 59.4176 24.0682C59.0691 23.3939 58.8949 22.5966 58.8949 21.6761C58.8949 20.7784 59.0691 19.9905 59.4176 19.3125C59.7661 18.6345 60.2566 18.1061 60.8892 17.7273C61.5256 17.3485 62.2718 17.1591 63.1278 17.1591C63.7036 17.1591 64.2396 17.2519 64.7358 17.4375C65.2358 17.6193 65.6714 17.8939 66.0426 18.2614C66.4176 18.6288 66.7093 19.0909 66.9176 19.6477C67.1259 20.2008 67.2301 20.8485 67.2301 21.5909V22.2557H59.8608V20.7557H64.9517C64.9517 20.4072 64.8759 20.0985 64.7244 19.8295C64.5729 19.5606 64.3627 19.3504 64.0938 19.1989C63.8286 19.0436 63.5199 18.9659 63.1676 18.9659C62.8002 18.9659 62.4744 19.0511 62.1903 19.2216C61.91 19.3883 61.6903 19.6136 61.5312 19.8977C61.3722 20.178 61.2907 20.4905 61.2869 20.8352V22.2614C61.2869 22.6932 61.3665 23.0663 61.5256 23.3807C61.6884 23.6951 61.9176 23.9375 62.2131 24.108C62.5085 24.2784 62.8589 24.3636 63.2642 24.3636C63.5331 24.3636 63.7794 24.3258 64.0028 24.25C64.2263 24.1742 64.4176 24.0606 64.5767 23.9091C64.7358 23.7576 64.857 23.572 64.9403 23.3523L67.179 23.5C67.0653 24.0379 66.8324 24.5076 66.4801 24.9091C66.1316 25.3068 65.6809 25.6174 65.1278 25.8409C64.5786 26.0606 63.9441 26.1705 63.2244 26.1705ZM73.4517 17.2727V19.0909H68.196V17.2727H73.4517ZM69.3892 15.1818H71.8097V23.3182C71.8097 23.5417 71.8438 23.7159 71.9119 23.8409C71.9801 23.9621 72.0748 24.0473 72.196 24.0966C72.321 24.1458 72.465 24.1705 72.6278 24.1705C72.7415 24.1705 72.8551 24.161 72.9688 24.142C73.0824 24.1193 73.1695 24.1023 73.2301 24.0909L73.6108 25.892C73.4896 25.9299 73.3191 25.9735 73.0994 26.0227C72.8797 26.0758 72.6127 26.108 72.2983 26.1193C71.715 26.142 71.2036 26.0644 70.7642 25.8864C70.3286 25.7083 69.9896 25.4318 69.7472 25.0568C69.5047 24.6818 69.3854 24.2083 69.3892 23.6364V15.1818ZM77.517 26.1648C76.9602 26.1648 76.464 26.0682 76.0284 25.875C75.5928 25.678 75.2481 25.3883 74.9943 25.0057C74.7443 24.6193 74.6193 24.1383 74.6193 23.5625C74.6193 23.0777 74.7083 22.6705 74.8864 22.3409C75.0644 22.0114 75.3068 21.7462 75.6136 21.5455C75.9205 21.3447 76.2689 21.1932 76.6591 21.0909C77.053 20.9886 77.4659 20.9167 77.8977 20.875C78.4053 20.822 78.8144 20.7727 79.125 20.7273C79.4356 20.678 79.661 20.6061 79.8011 20.5114C79.9413 20.4167 80.0114 20.2765 80.0114 20.0909V20.0568C80.0114 19.697 79.8977 19.4186 79.6705 19.2216C79.447 19.0246 79.1288 18.9261 78.7159 18.9261C78.2803 18.9261 77.9337 19.0227 77.6761 19.2159C77.4186 19.4053 77.2481 19.6439 77.1648 19.9318L74.9261 19.75C75.0398 19.2197 75.2633 18.7614 75.5966 18.375C75.9299 17.9848 76.3598 17.6856 76.8864 17.4773C77.4167 17.2652 78.0303 17.1591 78.7273 17.1591C79.2121 17.1591 79.6761 17.2159 80.1193 17.3295C80.5663 17.4432 80.9621 17.6193 81.3068 17.858C81.6553 18.0966 81.9299 18.4034 82.1307 18.7784C82.3314 19.1496 82.4318 19.5947 82.4318 20.1136V26H80.1364V24.7898H80.0682C79.928 25.0625 79.7405 25.303 79.5057 25.5114C79.2708 25.7159 78.9886 25.8769 78.6591 25.9943C78.3295 26.108 77.9489 26.1648 77.517 26.1648ZM78.2102 24.4943C78.5663 24.4943 78.8807 24.4242 79.1534 24.2841C79.4261 24.1402 79.6402 23.947 79.7955 23.7045C79.9508 23.4621 80.0284 23.1875 80.0284 22.8807V21.9545C79.9527 22.0038 79.8485 22.0492 79.7159 22.0909C79.5871 22.1288 79.4413 22.1648 79.2784 22.1989C79.1155 22.2292 78.9527 22.2576 78.7898 22.2841C78.6269 22.3068 78.4792 22.3277 78.3466 22.3466C78.0625 22.3883 77.8144 22.4545 77.6023 22.5455C77.3902 22.6364 77.2254 22.7595 77.108 22.9148C76.9905 23.0663 76.9318 23.2557 76.9318 23.483C76.9318 23.8125 77.0511 24.0644 77.2898 24.2386C77.5322 24.4091 77.839 24.4943 78.2102 24.4943ZM94.6222 18.4375H92.1335C92.0881 18.1155 91.9953 17.8295 91.8551 17.5795C91.715 17.3258 91.535 17.1098 91.3153 16.9318C91.0956 16.7538 90.8419 16.6174 90.554 16.5227C90.2699 16.428 89.9612 16.3807 89.6278 16.3807C89.0256 16.3807 88.5009 16.5303 88.054 16.8295C87.607 17.125 87.2604 17.5568 87.0142 18.125C86.768 18.6894 86.6449 19.375 86.6449 20.1818C86.6449 21.0114 86.768 21.7083 87.0142 22.2727C87.2642 22.8371 87.6127 23.2633 88.0597 23.5511C88.5066 23.839 89.0237 23.983 89.6108 23.983C89.9403 23.983 90.2453 23.9394 90.5256 23.8523C90.8097 23.7652 91.0616 23.6383 91.2812 23.4716C91.5009 23.3011 91.6828 23.0947 91.8267 22.8523C91.9744 22.6098 92.0767 22.3333 92.1335 22.0227L94.6222 22.0341C94.5578 22.5682 94.3968 23.0833 94.1392 23.5795C93.8854 24.072 93.5426 24.5133 93.1108 24.9034C92.6828 25.2898 92.1714 25.5966 91.5767 25.8239C90.9858 26.0473 90.3172 26.1591 89.571 26.1591C88.5331 26.1591 87.6051 25.9242 86.7869 25.4545C85.9725 24.9848 85.3286 24.3049 84.8551 23.4148C84.3854 22.5246 84.1506 21.447 84.1506 20.1818C84.1506 18.9129 84.3892 17.8333 84.8665 16.9432C85.3438 16.053 85.9915 15.375 86.8097 14.9091C87.6278 14.4394 88.5483 14.2045 89.571 14.2045C90.2453 14.2045 90.8703 14.2992 91.446 14.4886C92.0256 14.678 92.5388 14.9545 92.9858 15.3182C93.4328 15.678 93.7964 16.1193 94.0767 16.642C94.3608 17.1648 94.5426 17.7633 94.6222 18.4375ZM98.7614 20.9545V26H96.3409V14.3636H98.6932V18.8125H98.7955C98.9924 18.2973 99.3106 17.8939 99.75 17.6023C100.189 17.3068 100.741 17.1591 101.403 17.1591C102.009 17.1591 102.538 17.2917 102.989 17.5568C103.443 17.8182 103.795 18.1951 104.045 18.6875C104.299 19.1761 104.424 19.7614 104.42 20.4432V26H102V20.875C102.004 20.3371 101.867 19.9186 101.591 19.6193C101.318 19.3201 100.936 19.1705 100.443 19.1705C100.114 19.1705 99.822 19.2405 99.5682 19.3807C99.3182 19.5208 99.1212 19.7254 98.9773 19.9943C98.8371 20.2595 98.7652 20.5795 98.7614 20.9545ZM108.814 26.1648C108.257 26.1648 107.761 26.0682 107.325 25.875C106.89 25.678 106.545 25.3883 106.291 25.0057C106.041 24.6193 105.916 24.1383 105.916 23.5625C105.916 23.0777 106.005 22.6705 106.183 22.3409C106.361 22.0114 106.604 21.7462 106.911 21.5455C107.217 21.3447 107.566 21.1932 107.956 21.0909C108.35 20.9886 108.763 20.9167 109.195 20.875C109.702 20.822 110.111 20.7727 110.422 20.7273C110.732 20.678 110.958 20.6061 111.098 20.5114C111.238 20.4167 111.308 20.2765 111.308 20.0909V20.0568C111.308 19.697 111.195 19.4186 110.967 19.2216C110.744 19.0246 110.426 18.9261 110.013 18.9261C109.577 18.9261 109.231 19.0227 108.973 19.2159C108.715 19.4053 108.545 19.6439 108.462 19.9318L106.223 19.75C106.337 19.2197 106.56 18.7614 106.893 18.375C107.227 17.9848 107.657 17.6856 108.183 17.4773C108.714 17.2652 109.327 17.1591 110.024 17.1591C110.509 17.1591 110.973 17.2159 111.416 17.3295C111.863 17.4432 112.259 17.6193 112.604 17.858C112.952 18.0966 113.227 18.4034 113.428 18.7784C113.628 19.1496 113.729 19.5947 113.729 20.1136V26H111.433V24.7898H111.365C111.225 25.0625 111.037 25.303 110.803 25.5114C110.568 25.7159 110.286 25.8769 109.956 25.9943C109.626 26.108 109.246 26.1648 108.814 26.1648ZM109.507 24.4943C109.863 24.4943 110.178 24.4242 110.45 24.2841C110.723 24.1402 110.937 23.947 111.092 23.7045C111.248 23.4621 111.325 23.1875 111.325 22.8807V21.9545C111.25 22.0038 111.145 22.0492 111.013 22.0909C110.884 22.1288 110.738 22.1648 110.575 22.1989C110.412 22.2292 110.25 22.2576 110.087 22.2841C109.924 22.3068 109.776 22.3277 109.643 22.3466C109.359 22.3883 109.111 22.4545 108.899 22.5455C108.687 22.6364 108.522 22.7595 108.405 22.9148C108.287 23.0663 108.229 23.2557 108.229 23.483C108.229 23.8125 108.348 24.0644 108.587 24.2386C108.829 24.4091 109.136 24.4943 109.507 24.4943ZM115.607 26V17.2727H118.027V26H115.607ZM116.822 16.1477C116.463 16.1477 116.154 16.0284 115.896 15.7898C115.643 15.5473 115.516 15.2576 115.516 14.9205C115.516 14.5871 115.643 14.3011 115.896 14.0625C116.154 13.8201 116.463 13.6989 116.822 13.6989C117.182 13.6989 117.489 13.8201 117.743 14.0625C118 14.3011 118.129 14.5871 118.129 14.9205C118.129 15.2576 118 15.5473 117.743 15.7898C117.489 16.0284 117.182 16.1477 116.822 16.1477ZM122.386 20.9545V26H119.966V17.2727H122.273V18.8125H122.375C122.568 18.3049 122.892 17.9034 123.347 17.608C123.801 17.3087 124.352 17.1591 125 17.1591C125.606 17.1591 126.134 17.2917 126.585 17.5568C127.036 17.822 127.386 18.2008 127.636 18.6932C127.886 19.1818 128.011 19.7652 128.011 20.4432V26H125.591V20.875C125.595 20.3409 125.458 19.9242 125.182 19.625C124.905 19.322 124.525 19.1705 124.04 19.1705C123.714 19.1705 123.426 19.2405 123.176 19.3807C122.93 19.5208 122.737 19.7254 122.597 19.9943C122.46 20.2595 122.39 20.5795 122.386 20.9545ZM137.18 19.7614L134.964 19.8977C134.927 19.7083 134.845 19.5379 134.72 19.3864C134.595 19.2311 134.43 19.108 134.226 19.017C134.025 18.9223 133.785 18.875 133.504 18.875C133.129 18.875 132.813 18.9545 132.555 19.1136C132.298 19.2689 132.169 19.4773 132.169 19.7386C132.169 19.947 132.252 20.1231 132.419 20.267C132.586 20.411 132.872 20.5265 133.277 20.6136L134.857 20.9318C135.705 21.1061 136.338 21.3864 136.754 21.7727C137.171 22.1591 137.379 22.6667 137.379 23.2955C137.379 23.8674 137.211 24.3693 136.874 24.8011C136.54 25.233 136.082 25.5701 135.499 25.8125C134.919 26.0511 134.25 26.1705 133.493 26.1705C132.338 26.1705 131.417 25.9299 130.732 25.4489C130.05 24.964 129.65 24.3049 129.533 23.4716L131.913 23.3466C131.985 23.6989 132.16 23.9678 132.436 24.1534C132.713 24.3352 133.067 24.4261 133.499 24.4261C133.923 24.4261 134.264 24.3447 134.521 24.1818C134.783 24.0152 134.915 23.8011 134.919 23.5398C134.915 23.3201 134.822 23.1402 134.641 23C134.459 22.8561 134.179 22.7462 133.8 22.6705L132.288 22.3693C131.436 22.1989 130.802 21.9034 130.385 21.483C129.972 21.0625 129.766 20.5265 129.766 19.875C129.766 19.3144 129.917 18.8314 130.22 18.4261C130.527 18.0208 130.957 17.7083 131.51 17.4886C132.067 17.2689 132.718 17.1591 133.464 17.1591C134.567 17.1591 135.434 17.392 136.067 17.858C136.703 18.3239 137.074 18.9583 137.18 19.7614Z" fill="#FE6A3F"/>
<defs>
<radialGradient id="paint0_radial_13_493" cx="0" cy="0" r="1" gradientUnits="userSpaceOnUse" gradientTransform="translate(21.5845 10.2299) scale(20.0447 20.0447)">
<stop offset="0.36" stop-color="#DA2128"/>
<stop offset="1" stop-color="#F37021"/>
</radialGradient>
<radialGradient id="paint1_radial_13_493" cx="0" cy="0" r="1" gradientUnits="userSpaceOnUse" gradientTransform="translate(2.55257 28.0571) scale(10.4006)">
<stop offset="0.31" stop-color="#DA2128"/>
<stop offset="0.79" stop-color="#910D11"/>
<stop offset="1" stop-color="#6F0000"/>
</radialGradient>
</defs>
</svg>
